<svg width="34" height="29" viewBox="0 0 34 29" fill="none" xmlns="http://www.w3.org/2000/svg">
<g clip-path="url(#clip0_2124_45769)">
<path d="M8.60937 14.0969C10.789 14.0969 12.6875 12.1282 12.6875 9.5852C12.6875 7.05395 10.7773 5.20239 8.60937 5.20239C6.42969 5.20239 4.51953 7.10083 4.51953 9.60864C4.51953 12.1282 6.41797 14.0969 8.60937 14.0969ZM2.07031 24.6789H15.125C16.6133 24.6789 17.1875 24.093 17.1875 23.0266C17.1875 19.7922 13.8828 15.8899 8.59765 15.8899C3.3125 15.8899 0.0078125 19.7922 0.0078125 23.0266C0.0078125 24.093 0.59375 24.6789 2.07031 24.6789Z" fill="black" fill-opacity="0.85"/>
<path d="M14.7266 26.2727H29.457C32.539 26.2727 33.5469 24.7844 33.5469 23.1204C33.5469 19.1828 29.0351 14.3313 22.0859 14.3313C15.1484 14.3313 10.6367 19.1828 10.6367 23.1204C10.6367 24.7844 11.6445 26.2727 14.7266 26.2727Z" fill="white"/>
<path d="M22.0976 13.8274C24.6172 13.8274 26.7851 11.5774 26.7851 8.6477C26.7851 5.75317 24.6055 3.60864 22.0976 3.60864C19.5898 3.60864 17.4101 5.80005 17.4101 8.67114C17.4101 11.5774 19.5781 13.8274 22.0976 13.8274ZM14.7266 24.6789H29.457C31.2969 24.6789 31.9531 24.1516 31.9531 23.1204C31.9531 20.0969 28.168 15.925 22.0859 15.925C16.0156 15.925 12.2305 20.0969 12.2305 23.1204C12.2305 24.1516 12.8867 24.6789 14.7266 24.6789Z" fill="black" fill-opacity="0.85"/>
</g>
<defs>
<clipPath id="clip0_2124_45769">
<rect width="33.5391" height="24.2461" fill="white" transform="translate(0.0078125 2.02661)"/>
</clipPath>
</defs>
</svg>
