<svg width="28" height="28" viewBox="0 0 28 28" fill="none" xmlns="http://www.w3.org/2000/svg">
<g clip-path="url(#clip0_2124_88676)">
<path d="M4.76953 21.9688H23.3438C24.4453 21.9688 25.1133 21.4062 25.1133 20.5508C25.1133 19.3789 23.918 18.3242 22.9102 17.2812C22.1367 16.4727 21.9258 14.8086 21.832 13.4609C21.75 8.96094 20.5547 5.86719 17.4375 4.74219C16.9922 3.20703 15.7852 2 14.0508 2C12.3281 2 11.1094 3.20703 10.6758 4.74219C7.55859 5.86719 6.36328 8.96094 6.28125 13.4609C6.1875 14.8086 5.97656 16.4727 5.20312 17.2812C4.18359 18.3242 3 19.3789 3 20.5508C3 21.4062 3.65625 21.9688 4.76953 21.9688ZM14.0508 26.668C16.043 26.668 17.4961 25.2148 17.6484 23.5742H10.4648C10.6172 25.2148 12.0703 26.668 14.0508 26.668Z" fill="black" fill-opacity="0.85"/>
</g>
<defs>
<clipPath id="clip0_2124_88676">
<rect width="22.1133" height="24.668" fill="white" transform="translate(3 2)"/>
</clipPath>
</defs>
</svg>
