<svg width="28" height="28" viewBox="0 0 28 28" fill="none" xmlns="http://www.w3.org/2000/svg">
<g clip-path="url(#clip0_2124_88613)">
<path d="M18.3418 24.5401C19.1152 24.5401 19.666 23.9893 19.666 23.2276V5.25098C19.666 4.48926 19.1152 3.86816 18.3184 3.86816C17.7793 3.86816 17.4043 4.10254 16.8066 4.67676L11.8145 9.36426C11.7324 9.43457 11.6387 9.46973 11.5215 9.46973H8.1582C6.57617 9.46973 5.70898 10.3486 5.70898 12.0362V16.3955C5.70898 18.0948 6.57617 18.9619 8.1582 18.9619H11.5215C11.6387 18.9619 11.7324 18.9971 11.8145 19.0674L16.8066 23.8018C17.3457 24.3174 17.8027 24.5401 18.3418 24.5401Z" fill="black" fill-opacity="0.85"/>
<path d="M22.7363 26.7315C23.6387 27.6221 25.0918 27.6221 25.959 26.708C26.8262 25.8291 26.8262 24.4112 25.9473 23.5205L5.88477 3.46973C4.99414 2.5791 3.54102 2.5791 2.65039 3.46973C1.7832 4.33691 1.7832 5.80176 2.65039 6.68066L22.7363 26.7315Z" fill="white"/>
<path d="M23.709 25.7705C24.0605 26.1221 24.6348 26.1221 24.9863 25.7705C25.3262 25.4073 25.3379 24.8448 24.9863 24.4932L4.91211 4.43066C4.56055 4.0791 3.97461 4.0791 3.62305 4.43066C3.2832 4.77051 3.2832 5.36816 3.62305 5.70801L23.709 25.7705Z" fill="black" fill-opacity="0.85"/>
</g>
<defs>
<clipPath id="clip0_2124_88613">
<rect width="24.6079" height="26.3965" fill="white" transform="translate(2 1)"/>
</clipPath>
</defs>
</svg>
