<svg width="28" height="28" viewBox="0 0 28 28" fill="none" xmlns="http://www.w3.org/2000/svg">
<g clip-path="url(#clip0_2124_88603)">
<path d="M19.6328 24.6836C20.4062 24.6836 20.957 24.1328 20.957 23.3711V5.39453C20.957 4.63281 20.4062 4.01172 19.6094 4.01172C19.0703 4.01172 18.6953 4.24609 18.0977 4.82031L13.1055 9.50781C13.0234 9.57812 12.9297 9.61328 12.8125 9.61328H9.44922C7.86719 9.61328 7 10.4922 7 12.1797V16.5391C7 18.2383 7.86719 19.1055 9.44922 19.1055H12.8125C12.9297 19.1055 13.0234 19.1406 13.1055 19.2109L18.0977 23.9453C18.6367 24.4609 19.0938 24.6836 19.6328 24.6836Z" fill="black" fill-opacity="0.85"/>
</g>
<defs>
<clipPath id="clip0_2124_88603">
<rect width="13.957" height="20.6836" fill="white" transform="translate(7 4)"/>
</clipPath>
</defs>
</svg>
