<svg width="28" height="28" viewBox="0 0 28 28" fill="none" xmlns="http://www.w3.org/2000/svg">
<g clip-path="url(#clip0_2124_78031)">
<path d="M6.67969 24.5977H20.8945C23.3555 24.5977 24.5742 23.3789 24.5742 20.9648V6.65625C24.5742 4.24219 23.3555 3.02344 20.8945 3.02344H6.67969C4.23047 3.02344 3 4.23047 3 6.65625V20.9648C3 23.3906 4.23047 24.5977 6.67969 24.5977Z" fill="black" fill-opacity="0.85"/>
<path d="M8.07422 13.8047C8.07422 13.1953 8.49609 12.7734 9.10547 12.7734H12.7734V9.10547C12.7734 8.49609 13.1836 8.0625 13.7812 8.0625C14.3906 8.0625 14.8125 8.49609 14.8125 9.10547V12.7734H18.4922C19.0898 12.7734 19.5234 13.1953 19.5234 13.8047C19.5234 14.4023 19.0898 14.8008 18.4922 14.8008H14.8125V18.4805C14.8125 19.0898 14.3906 19.5117 13.7812 19.5117C13.1836 19.5117 12.7734 19.0781 12.7734 18.4805V14.8008H9.10547C8.49609 14.8008 8.07422 14.4023 8.07422 13.8047Z" fill="white"/>
</g>
<defs>
<clipPath id="clip0_2124_78031">
<rect width="21.5742" height="21.5977" fill="white" transform="translate(3 3)"/>
</clipPath>
</defs>
</svg>
