<svg width="28" height="28" viewBox="0 0 28 28" fill="none" xmlns="http://www.w3.org/2000/svg">
<path d="M14.8164 24.4922C15.3906 24.4922 15.8594 24.2578 16.4219 23.7305L25.668 15C26.1133 14.5781 26.2656 14.1328 26.2656 13.7461C26.2656 13.3477 26.125 12.9141 25.668 12.4805L16.4219 3.83203C15.8008 3.24609 15.4141 3 14.8398 3C14.0195 3 13.4336 3.64453 13.4336 4.42969V8.85938H13.0938C4.66797 8.85938 1 14.2617 1 22.9219C1 23.9297 1.57422 24.4922 2.20703 24.4922C2.69922 24.4922 3.23828 24.375 3.64844 23.625C5.6875 19.793 8.55859 18.6445 13.0938 18.6445H13.4336V23.1211C13.4336 23.9062 14.0195 24.4922 14.8164 24.4922Z" fill="black" fill-opacity="0.85"/>
</svg>
