<svg width="28" height="28" viewBox="0 0 28 28" fill="none" xmlns="http://www.w3.org/2000/svg">
<path d="M7.20948 24.4712H9.75245C9.98682 24.4712 10.1626 24.5415 10.3384 24.7173L12.1431 26.5103C13.6196 27.9985 14.9907 27.9868 16.4673 26.5103L18.272 24.7173C18.4595 24.5415 18.6235 24.4712 18.8696 24.4712H21.4009C23.4985 24.4712 24.4712 23.5103 24.4712 21.4009V18.8696C24.4712 18.6235 24.5415 18.4595 24.7173 18.272L26.5103 16.4673C27.9985 14.9907 27.9868 13.6196 26.5103 12.1431L24.7173 10.3384C24.5415 10.1626 24.4712 9.98682 24.4712 9.75245V7.20948C24.4712 5.12354 23.5103 4.13916 21.4009 4.13916H18.8696C18.6235 4.13916 18.4595 4.08057 18.272 3.90479L16.4673 2.11182C14.9907 0.623539 13.6196 0.635258 12.1431 2.11182L10.3384 3.90479C10.1626 4.08057 9.98682 4.13916 9.75245 4.13916H7.20948C5.11182 4.13916 4.13916 5.1001 4.13916 7.20948V9.75245C4.13916 9.98682 4.08057 10.1626 3.90479 10.3384L2.11182 12.1431C0.623539 13.6196 0.635258 14.9907 2.11182 16.4673L3.90479 18.272C4.08057 18.4595 4.13916 18.6235 4.13916 18.8696V21.4009C4.13916 23.4985 5.11182 24.4712 7.20948 24.4712Z" fill="black" fill-opacity="0.85"/>
<path d="M12.999 20.0298C12.6006 20.0298 12.2725 19.8774 11.9678 19.4673L9.02637 15.8579C8.85059 15.6235 8.74512 15.354 8.74512 15.0962C8.74512 14.5571 9.15528 14.1235 9.69434 14.1235C10.0225 14.1235 10.2803 14.2407 10.5732 14.6274L12.9522 17.6978L17.9561 9.6587C18.1787 9.29541 18.4834 9.11963 18.7998 9.11963C19.3037 9.11963 19.7842 9.4712 19.7842 10.0103C19.7842 10.2798 19.6319 10.5493 19.4912 10.7837L13.9834 19.4673C13.7373 19.8423 13.3975 20.0298 12.999 20.0298Z" fill="white"/>
</svg>
