<svg width="28" height="28" viewBox="0 0 28 28" fill="none" xmlns="http://www.w3.org/2000/svg">
<g clip-path="url(#clip0_2124_88619)">
<path d="M22.1407 19.3282C22.5274 19.5978 23.0782 19.5157 23.3946 19.0587C24.297 17.8751 24.836 16.129 24.836 14.336C24.836 12.5431 24.297 10.8087 23.3946 9.61342C23.0782 9.15639 22.5274 9.06264 22.1407 9.34389C21.6603 9.67202 21.5899 10.2579 21.9532 10.7384C22.6329 11.6759 23.0196 12.9767 23.0196 14.336C23.0196 15.6954 22.6212 16.9845 21.9532 17.9337C21.6017 18.4259 21.6603 18.9884 22.1407 19.3282Z" fill="black" fill-opacity="0.85"/>
<path d="M16.6328 24.6836C17.4062 24.6836 17.957 24.1328 17.957 23.3711V5.39453C17.957 4.63281 17.4062 4.01172 16.6094 4.01172C16.0586 4.01172 15.6836 4.24609 15.0977 4.82031L10.0938 9.50781C10.0234 9.57812 9.91797 9.61328 9.80078 9.61328H6.44922C4.85547 9.61328 4 10.4922 4 12.1797V16.5391C4 18.2383 4.85547 19.1055 6.44922 19.1055H9.80078C9.91797 19.1055 10.0234 19.1406 10.0938 19.2109L15.0977 23.9453C15.625 24.4609 16.082 24.6836 16.6328 24.6836Z" fill="black" fill-opacity="0.85"/>
</g>
<defs>
<clipPath id="clip0_2124_88619">
<rect width="20.8359" height="20.6836" fill="white" transform="translate(4 4)"/>
</clipPath>
</defs>
</svg>
