<svg width="28" height="28" viewBox="0 0 28 28" fill="none" xmlns="http://www.w3.org/2000/svg">
<g clip-path="url(#clip0_2124_88621)">
<path d="M23.4881 22.3867C23.9217 22.6797 24.4607 22.5742 24.7771 22.1289C26.2771 20.0664 27.156 17.2305 27.156 14.3359C27.156 11.4415 26.2889 8.58208 24.7771 6.54302C24.4607 6.09771 23.9217 5.99224 23.4881 6.28521C23.0545 6.57817 22.9842 7.12896 23.324 7.60943C24.6014 9.41411 25.3396 11.8399 25.3396 14.3359C25.3396 16.832 24.5779 19.2344 23.324 21.0625C22.9959 21.543 23.0545 22.0938 23.4881 22.3867Z" fill="black" fill-opacity="0.85"/>
<path d="M19.1523 19.3282C19.5391 19.5978 20.0898 19.5157 20.4062 19.0587C21.3086 17.8751 21.8477 16.129 21.8477 14.336C21.8477 12.5431 21.3086 10.8087 20.4062 9.61342C20.0898 9.15639 19.5391 9.06264 19.1523 9.34389C18.6719 9.67202 18.6016 10.2579 18.9648 10.7384C19.6445 11.6759 20.0312 12.9767 20.0312 14.336C20.0312 15.6954 19.6328 16.9845 18.9648 17.9337C18.6133 18.4259 18.6719 18.9884 19.1523 19.3282Z" fill="black" fill-opacity="0.85"/>
<path d="M13.6328 24.6836C14.4062 24.6836 14.957 24.1328 14.957 23.3711V5.39453C14.957 4.63281 14.4062 4.01172 13.6094 4.01172C13.0586 4.01172 12.6953 4.25781 12.0977 4.82031L7.09375 9.50781C7.02344 9.57812 6.91797 9.61328 6.80078 9.61328H3.44922C1.85547 9.61328 1 10.4922 1 12.1797V16.5391C1 18.2383 1.85547 19.1055 3.44922 19.1055H6.80078C6.91797 19.1055 7.02344 19.1406 7.09375 19.2109L12.0977 23.9453C12.625 24.4609 13.082 24.6836 13.6328 24.6836Z" fill="black" fill-opacity="0.85"/>
</g>
<defs>
<clipPath id="clip0_2124_88621">
<rect width="26.1562" height="20.6836" fill="white" transform="translate(1 4)"/>
</clipPath>
</defs>
</svg>
