<svg width="32" height="28" viewBox="0 0 32 28" fill="none" xmlns="http://www.w3.org/2000/svg">
<g clip-path="url(#clip0_2124_88625)">
<path d="M26.8829 25.4752C27.2813 25.7682 27.8556 25.651 28.172 25.1823C30.2228 22.2174 31.4532 18.4557 31.4532 14.319C31.4532 10.1706 30.1876 6.43228 28.172 3.45572C27.8556 2.97525 27.2813 2.86978 26.8829 3.16275C26.4376 3.46743 26.379 4.01822 26.6954 4.49869C28.5118 7.18228 29.6603 10.5573 29.6603 14.319C29.6603 18.069 28.5118 21.4674 26.6954 24.1393C26.379 24.6198 26.4376 25.1706 26.8829 25.4752Z" fill="black" fill-opacity="0.85"/>
<path d="M22.4881 22.3697C22.9217 22.6626 23.4607 22.5572 23.7771 22.1119C25.2771 20.0494 26.156 17.2134 26.156 14.3189C26.156 11.4244 25.2889 8.56499 23.7771 6.52593C23.4607 6.08062 22.9217 5.97515 22.4881 6.26812C22.0545 6.56109 21.9842 7.11187 22.324 7.59234C23.6014 9.39702 24.3396 11.8228 24.3396 14.3189C24.3396 16.815 23.5779 19.2173 22.324 21.0455C21.9959 21.5259 22.0545 22.0767 22.4881 22.3697Z" fill="black" fill-opacity="0.85"/>
<path d="M18.1407 19.3112C18.5274 19.5807 19.0782 19.4987 19.3946 19.0417C20.297 17.8581 20.836 16.112 20.836 14.319C20.836 12.526 20.297 10.7916 19.3946 9.59633C19.0782 9.1393 18.5274 9.04555 18.1407 9.3268C17.6603 9.65493 17.5899 10.2409 17.9532 10.7213C18.6329 11.6588 19.0196 12.9596 19.0196 14.319C19.0196 15.6784 18.6212 16.9674 17.9532 17.9167C17.6017 18.4088 17.6603 18.9713 18.1407 19.3112Z" fill="black" fill-opacity="0.85"/>
<path d="M12.6328 24.6665C13.4062 24.6665 13.957 24.1157 13.957 23.354V5.37744C13.957 4.61572 13.4062 3.99463 12.6094 3.99463C12.0586 3.99463 11.6836 4.229 11.0977 4.80322L6.09375 9.49072C6.02344 9.56104 5.91797 9.59619 5.80078 9.59619H2.44922C0.855469 9.59619 0 10.4751 0 12.1626V16.522C0 18.2212 0.855469 19.0883 2.44922 19.0883H5.80078C5.91797 19.0883 6.02344 19.1236 6.09375 19.1939L11.0977 23.9282C11.625 24.4438 12.082 24.6665 12.6328 24.6665Z" fill="black" fill-opacity="0.85"/>
</g>
<defs>
<clipPath id="clip0_2124_88625">
<rect width="31.4531" height="22.6497" fill="white" transform="translate(0 3)"/>
</clipPath>
</defs>
</svg>
