<svg width="29" height="28" viewBox="0 0 29 28" fill="none" xmlns="http://www.w3.org/2000/svg">
<g clip-path="url(#clip0_2124_88611)">
<path d="M18.6914 15.3203H27.8789C28.5352 15.3203 28.9922 14.9688 28.9922 14.3477C28.9922 13.7148 28.5703 13.3516 27.8789 13.3516H18.6914C18.0117 13.3516 17.5664 13.7148 17.5664 14.3477C17.5664 14.9688 18.0352 15.3203 18.6914 15.3203Z" fill="black" fill-opacity="0.85"/>
<path d="M12.6328 24.6836C13.4062 24.6836 13.957 24.1328 13.957 23.3711V5.39453C13.957 4.63281 13.4062 4.01172 12.6094 4.01172C12.0586 4.01172 11.6836 4.24609 11.0977 4.82031L6.09375 9.50781C6.02344 9.57812 5.91797 9.61328 5.80078 9.61328H2.44922C0.855469 9.61328 0 10.4922 0 12.1797V16.5391C0 18.2383 0.855469 19.1055 2.44922 19.1055H5.80078C5.91797 19.1055 6.02344 19.1406 6.09375 19.2109L11.0977 23.9453C11.625 24.4609 12.082 24.6836 12.6328 24.6836Z" fill="black" fill-opacity="0.85"/>
</g>
<defs>
<clipPath id="clip0_2124_88611">
<rect width="28.9922" height="20.6836" fill="white" transform="translate(0 4)"/>
</clipPath>
</defs>
</svg>
