<svg width="29" height="28" viewBox="0 0 29 28" fill="none" xmlns="http://www.w3.org/2000/svg">
<g clip-path="url(#clip0_2124_88609)">
<path d="M17.6953 14.3359C17.6953 14.9102 18.1055 15.2969 18.7031 15.2969H22.1484V18.7539C22.1484 19.3398 22.5469 19.75 23.1211 19.75C23.707 19.75 24.1172 19.3516 24.1172 18.7539V15.2969H27.5742C28.1602 15.2969 28.5586 14.9102 28.5586 14.3359C28.5586 13.75 28.1602 13.3398 27.5742 13.3398H24.1172V9.89453C24.1172 9.29688 23.707 8.88672 23.1211 8.88672C22.5469 8.88672 22.1484 9.29688 22.1484 9.89453V13.3398H18.7031C18.1055 13.3398 17.6953 13.75 17.6953 14.3359Z" fill="black" fill-opacity="0.85"/>
<path d="M12.6328 24.6836C13.4062 24.6836 13.957 24.1328 13.957 23.3711V5.39453C13.957 4.63281 13.4062 4.01172 12.6094 4.01172C12.0586 4.01172 11.6836 4.24609 11.0977 4.82031L6.09375 9.50781C6.02344 9.57812 5.91797 9.61328 5.80078 9.61328H2.44922C0.855469 9.61328 0 10.4922 0 12.1797V16.5391C0 18.2383 0.855469 19.1055 2.44922 19.1055H5.80078C5.91797 19.1055 6.02344 19.1406 6.09375 19.2109L11.0977 23.9453C11.625 24.4609 12.082 24.6836 12.6328 24.6836Z" fill="black" fill-opacity="0.85"/>
</g>
<defs>
<clipPath id="clip0_2124_88609">
<rect width="28.5586" height="20.6836" fill="white" transform="translate(0 4)"/>
</clipPath>
</defs>
</svg>
